<?xml version="1.0" standalone="no"?>
<!DOCTYPE svg PUBLIC "-//W3C//DTD SVG 20010904//EN"
 "http://www.w3.org/TR/2001/REC-SVG-20010904/DTD/svg10.dtd">
<svg version="1.0" xmlns="http://www.w3.org/2000/svg"
 width="500.000000pt" height="500.000000pt" viewBox="0 0 500.000000 500.000000"
 preserveAspectRatio="xMidYMid meet">

<g transform="translate(0.000000,500.000000) scale(0.100000,-0.100000)"
fill="#000000" stroke="none">
<path d="M3035 3034 c-159 -24 -301 -130 -376 -280 l-34 -69 -58 -3 c-51 -3
-58 -5 -51 -20 4 -9 7 -27 8 -39 2 -32 45 -73 77 -73 26 0 49 -23 49 -49 0
-14 -29 -41 -45 -41 -23 0 -47 31 -41 54 7 28 -39 76 -74 76 -23 0 -28 -7 -43
-52 -14 -46 -15 -54 -2 -68 8 -9 15 -24 15 -33 0 -15 13 -17 90 -17 l89 0 27
-56 c62 -131 205 -238 354 -265 275 -49 541 174 543 456 2 255 -185 458 -440
478 -32 3 -71 3 -88 1z m206 -197 c52 -26 118 -95 145 -152 18 -38 24 -67 24
-124 0 -63 -4 -81 -32 -133 -36 -68 -72 -102 -146 -136 -74 -34 -186 -35 -258
-3 -60 26 -123 87 -156 151 -26 52 -31 156 -10 226 24 83 133 177 222 192 60
10 169 -1 211 -21z"/>
<path d="M2085 2950 c16 -49 -54 -93 -85 -55 -18 22 -30 2 -30 -51 0 -38 2
-42 30 -47 38 -8 136 46 144 79 3 12 15 25 26 29 10 3 17 12 14 19 -7 17 -58
46 -84 46 -17 0 -20 -4 -15 -20z"/>
<path d="M2018 2946 c-23 -17 -23 -32 -1 -45 25 -13 53 5 53 34 0 28 -24 33
-52 11z"/>
<path d="M1643 2890 c-17 -10 -37 -29 -44 -41 -10 -19 -9 -25 6 -35 15 -12 23
-9 55 16 27 22 37 37 36 55 -1 30 -11 31 -53 5z"/>
<path d="M1710 2893 c0 -38 45 -58 69 -29 14 16 -1 31 -42 41 -22 6 -27 4 -27
-12z"/>
<path d="M2166 2885 c-19 -19 -19 -21 -6 -46 6 -10 20 -19 31 -19 17 0 20 5
17 37 -3 41 -18 51 -42 28z"/>
<path d="M1785 2850 c-4 -6 -24 -10 -45 -8 -53 3 -103 -35 -104 -79 -1 -29 4
-34 54 -58 51 -25 57 -25 84 -11 16 8 35 12 42 9 11 -4 14 7 13 48 -1 30 -4
65 -8 78 -7 27 -26 38 -36 21z"/>
<path d="M2086 2807 c-48 -26 -56 -34 -56 -59 0 -22 -8 -33 -35 -49 -19 -12
-35 -25 -35 -30 0 -5 -22 -9 -50 -9 -38 0 -50 -4 -50 -15 0 -8 -9 -24 -19 -34
-38 -38 -2 -198 46 -200 6 -1 13 9 15 22 4 29 43 35 57 9 10 -18 22 -20 121
-21 60 -1 110 1 110 4 0 2 -26 18 -59 34 -45 23 -67 29 -94 24 -30 -4 -38 -1
-51 20 -30 45 15 104 61 78 27 -15 91 40 95 82 2 22 10 35 26 42 32 14 31 79
-2 110 l-24 22 -56 -30z"/>
<path d="M1587 2778 c-7 -25 2 -50 17 -45 6 2 12 15 14 29 4 32 -24 46 -31 16z"/>
<path d="M1976 2783 c-13 -13 -6 -73 8 -73 21 0 38 27 31 49 -6 20 -29 34 -39
24z"/>
<path d="M2212 2735 c0 -16 2 -22 5 -12 2 9 2 23 0 30 -3 6 -5 -1 -5 -18z"/>
<path d="M1598 2709 c-10 -5 -18 -19 -18 -29 0 -11 -12 -26 -29 -35 -38 -19
-44 -30 -31 -54 14 -28 -4 -71 -30 -71 -31 0 -25 -37 14 -76 l34 -34 111 0
c61 0 111 3 111 8 0 14 -83 43 -94 32 -15 -15 -62 -12 -75 4 -16 19 -10 66 10
79 28 18 69 0 75 -33 8 -40 67 -65 114 -47 29 11 31 15 26 47 -3 19 -6 47 -6
62 0 19 -8 31 -27 40 -16 8 -29 23 -31 36 -3 18 -19 30 -69 53 -36 16 -66 29
-66 29 -1 0 -10 -5 -19 -11z"/>
<path d="M2171 2676 c-15 -18 2 -56 23 -56 21 0 38 27 31 50 -7 23 -37 27 -54
6z"/>
<path d="M1773 2664 c-8 -22 10 -49 32 -49 10 0 22 7 28 16 15 24 1 49 -28 49
-15 0 -28 -7 -32 -16z"/>
<path d="M2254 2662 c3 -6 -5 -23 -18 -39 -22 -25 -27 -27 -54 -17 -27 10 -35
9 -66 -14 -29 -20 -36 -32 -36 -58 0 -30 5 -36 51 -60 43 -21 56 -24 76 -15
41 19 72 14 85 -14 9 -19 19 -25 45 -25 29 0 33 3 33 25 0 18 7 28 24 35 44
16 73 165 36 182 -8 4 -43 7 -78 7 -61 1 -63 0 -57 -21 4 -13 9 -31 11 -40 3
-10 12 -18 19 -18 22 0 46 -40 35 -60 -11 -21 -35 -31 -55 -24 -20 8 -30 51
-16 68 14 17 -7 87 -28 94 -8 3 -11 0 -7 -6z"/>
<path d="M2461 2646 c-15 -18 -4 -46 19 -46 28 0 45 27 30 45 -16 19 -34 19
-49 1z"/>
<path d="M1482 2588 c-7 -7 -12 -23 -12 -36 0 -32 34 -26 38 7 5 29 -10 45
-26 29z"/>
<path d="M2302 2568 c-16 -16 -15 -33 3 -48 12 -10 18 -10 30 0 20 16 19 46
-1 54 -20 8 -18 8 -32 -6z"/>
<path d="M1994 2556 c-9 -23 -1 -48 18 -60 26 -16 68 26 52 52 -14 22 -62 28
-70 8z"/>
<path d="M2581 2527 c-25 -31 13 -66 46 -42 14 11 16 18 7 32 -14 23 -38 28
-53 10z"/>
<path d="M1608 2519 c-33 -19 -15 -69 24 -69 9 0 22 9 28 21 9 16 8 25 -6 40
-20 22 -22 22 -46 8z"/>
<path d="M2384 2455 c-8 -21 4 -35 31 -35 26 0 39 22 22 39 -16 16 -47 14 -53
-4z"/>
<path d="M2222 2448 c-20 -20 -14 -28 23 -28 37 0 49 22 19 34 -22 8 -28 8
-42 -6z"/>
<path d="M1792 2438 c-20 -20 -14 -28 23 -28 19 0 35 4 35 8 0 12 -22 32 -35
32 -6 0 -16 -5 -23 -12z"/>
<path d="M1910 2429 c0 -25 33 -22 38 4 2 12 -3 17 -17 17 -15 0 -21 -6 -21
-21z"/>
<path d="M1690 2241 l0 -81 44 0 c61 0 96 29 96 79 0 50 -26 73 -90 79 l-50 5
0 -82z m85 -1 c0 -16 -6 -26 -17 -28 -14 -3 -18 3 -18 28 0 25 4 31 18 28 11
-2 17 -12 17 -28z"/>
<path d="M2013 2243 c-30 -77 -30 -78 -10 -81 12 -2 26 3 33 12 14 20 53 21
60 1 4 -8 17 -15 31 -15 28 0 27 1 -12 97 -18 46 -28 59 -47 61 -22 3 -28 -5
-55 -75z m62 -3 c3 -5 1 -10 -4 -10 -6 0 -11 5 -11 10 0 6 2 10 4 10 3 0 8 -4
11 -10z"/>
<path d="M2409 2255 c-1 -36 -2 -71 -3 -77 -1 -7 9 -14 22 -16 19 -3 22 1 22
32 0 25 4 36 15 36 10 0 15 -11 15 -35 0 -31 3 -35 25 -35 23 0 25 4 25 44 0
51 -18 71 -55 62 -23 -6 -25 -3 -25 24 0 23 -4 30 -20 30 -18 0 -20 -7 -21
-65z"/>
<path d="M2320 2285 c0 -8 -4 -15 -10 -15 -5 0 -10 -7 -10 -15 0 -8 5 -15 10
-15 6 0 10 -13 10 -28 0 -34 16 -52 47 -52 26 0 32 25 8 34 -8 3 -15 12 -15
21 0 9 7 18 15 21 8 4 15 12 15 20 0 8 -7 14 -15 14 -8 0 -15 7 -15 15 0 8 -9
15 -20 15 -11 0 -20 -7 -20 -15z"/>
<path d="M1868 2263 c-24 -6 -27 -64 -6 -90 15 -19 98 -17 98 1 0 9 -13 16
-32 19 -32 4 -32 4 5 5 29 2 37 6 37 20 0 39 -47 60 -102 45z"/>
<path d="M2172 2218 l3 -53 58 -3 57 -3 0 56 c0 52 -1 55 -25 55 -22 0 -25 -4
-25 -36 0 -45 -24 -42 -28 4 -2 24 -8 32 -23 32 -18 0 -20 -6 -17 -52z"/>
</g>
</svg>
